<svg xmlns="http://www.w3.org/2000/svg" viewBox="0 0 276 36" width="276" height="36">
	<style>
		tspan { white-space:pre }
		.shp0 { fill: #ffffff } 
	</style>
	<g id="Page-1">
		<g id="Home">
			<g id="Logo">
				<g id="noun_Running_1473810">
					<g id="Group">
						<path id="Path" class="shp0" d="M242.53 30.93C242.53 30.44 242.2 30.11 241.71 30.11L227.36 30.11C226.87 30.11 226.54 30.44 226.54 30.93C226.54 31.42 226.87 31.75 227.36 31.75L241.71 31.75C242.2 31.75 242.53 31.34 242.53 30.93Z" />
						<path id="Path" class="shp0" d="M230.66 34.2L229.01 34.2C228.52 34.2 228.19 34.53 228.19 35.02C228.19 35.51 228.52 35.84 229.01 35.84L230.66 35.84C231.16 35.84 231.49 35.51 231.49 35.02C231.49 34.53 231.16 34.2 230.66 34.2Z" />
						<path id="Path" class="shp0" d="M234.54 26.84C234.54 26.35 234.21 26.02 233.71 26.02L225.71 26.02C225.22 26.02 224.89 26.35 224.89 26.84C224.89 27.33 225.22 27.65 225.71 27.65L233.71 27.65C234.21 27.65 234.54 27.25 234.54 26.84Z" />
						<path id="Shape" fill-rule="evenodd" class="shp0" d="M275.09 32.4C273.86 34.12 268.99 35.92 265.61 35.92L233.96 35.92C233.46 35.92 233.13 35.59 233.13 35.1C233.13 34.61 233.46 34.28 233.96 34.28L255.23 34.28C250.36 31.17 241.71 25.69 235.36 21.6C234.95 21.35 234.86 20.86 235.11 20.45C235.36 20.05 235.85 19.96 236.27 20.21C242.78 24.38 251.68 30.03 256.46 33.05C257.62 33.79 259.02 34.2 260.42 34.2L265.7 34.2C267.76 34.2 270.15 33.46 271.88 32.65L260.5 32.65C259.35 32.65 258.19 32.32 257.2 31.58L231.32 12.44C230.99 12.19 230.5 12.27 230.25 12.6L229.01 14.48C228.76 14.89 228.85 15.3 229.18 15.55C229.92 16.12 231.49 17.1 233.71 18.57C234.12 18.82 234.21 19.31 233.96 19.72C233.79 19.96 233.55 20.13 233.3 20.13C233.22 20.13 233.05 20.05 232.89 19.96C230.58 18.49 229.01 17.51 228.27 16.94C227.2 16.2 226.87 14.73 227.61 13.66L228.93 11.62C229.18 11.13 229.67 10.88 230.17 10.72C230.08 10.15 230.17 9.57 230.5 9.08L235.52 1.15C236.35 0.08 237.83 -0.16 238.9 0.57C239.23 0.82 240.06 1.47 242.94 5.89C243.93 7.36 245.58 8.35 247.31 8.67C247.72 8.75 248.05 9.25 247.97 9.65C247.89 10.06 247.4 10.39 246.98 10.31C244.76 9.98 242.78 8.67 241.54 6.87C239.15 3.03 238.16 2.21 237.92 1.96C237.59 1.72 237.09 1.8 236.84 2.13L235.85 3.68L236.6 10.55C236.6 11.29 236.43 12.03 236.02 12.6C235.61 13.17 235.28 13.34 235.28 13.34L258.28 30.27C258.94 30.76 259.76 31.01 260.58 31.01L274.02 31.01C274.43 30.35 274.43 29.7 274.1 29.05C274.02 28.8 273.86 28.72 273.69 28.64L267.51 26.26L265.04 25.36L264.95 25.36L256.55 22.17C256.38 22.17 256.22 22.01 256.13 21.85L249.29 10.23C249.13 9.98 249.13 9.74 249.21 9.49C249.62 8.59 250.61 7.85 251.85 7.69C253.25 7.53 254.57 8.1 255.56 9.25C255.64 9.25 255.64 9.33 255.64 9.33L256.71 11.05L257.45 11.05C257.95 11.05 258.28 11.37 258.28 11.86C258.28 12.19 258.03 12.52 257.7 12.6L258.52 13.91L259.35 13.91C259.84 13.91 260.17 14.24 260.17 14.73C260.17 15.14 259.93 15.46 259.51 15.55L260.5 17.18L261.33 17.18C261.82 17.18 262.15 17.51 262.15 18C262.15 18.41 261.9 18.74 261.49 18.82L263.63 22.34C264.05 22.99 264.71 23.48 265.45 23.81L268 24.71L274.27 27.08C274.76 27.33 275.26 27.74 275.51 28.23C276.25 29.54 276.16 30.93 275.09 32.4ZM261.82 22.5L259.51 18.9L257.86 18.9C257.37 18.9 257.04 18.57 257.04 18.08C257.04 17.59 257.37 17.26 257.86 17.26L258.52 17.26L257.53 15.71L255.89 15.71C255.39 15.71 255.06 15.38 255.06 14.89C255.06 14.4 255.39 14.07 255.89 14.07L256.55 14.07L255.72 12.76L253.99 12.76C253.5 12.76 253.17 12.44 253.17 11.95C253.17 11.45 253.5 11.13 253.99 11.13L254.73 11.13L254.24 10.31C253.41 9.41 252.51 9.33 252.01 9.41C251.52 9.49 251.1 9.74 250.86 9.98L257.29 20.86L261.82 22.5ZM232.31 11.13C233.05 11.7 233.46 11.95 233.46 11.95C234.21 12.52 234.54 11.86 234.7 11.62C234.86 11.37 234.95 11.05 234.95 10.72L234.45 5.97L231.9 9.98C231.73 10.31 231.81 10.72 232.31 11.13Z" />
					</g>
				</g>
				<path id="GUMBSHOES " fill="#ffffff" d="M20.66 23.13L20.66 32.5Q19.35 34.06 16.97 34.93Q14.58 35.78 11.68 35.78Q8.64 35.78 6.33 34.46Q4.04 33.12 2.79 30.59Q1.55 28.06 1.51 24.65L1.51 23.05Q1.51 19.54 2.69 16.98Q3.88 14.4 6.11 13.05Q8.35 11.68 11.34 11.68Q15.52 11.68 17.87 13.68Q20.22 15.66 20.66 19.46L15.95 19.46Q15.63 17.45 14.52 16.51Q13.42 15.58 11.49 15.58Q9.02 15.58 7.73 17.43Q6.45 19.28 6.43 22.94L6.43 24.44Q6.43 28.13 7.83 30.01Q9.23 31.9 11.94 31.9Q14.66 31.9 15.82 30.74L15.82 26.7L11.42 26.7L11.42 23.13L20.66 23.13ZM37.48 12L42.33 12L42.33 27.45Q42.33 31.3 39.91 33.54Q37.51 35.78 33.34 35.78Q29.23 35.78 26.81 33.61Q24.4 31.43 24.35 27.63L24.35 12L29.18 12L29.18 27.48Q29.18 29.79 30.28 30.85Q31.39 31.9 33.34 31.9Q37.42 31.9 37.48 27.61L37.48 12ZM46.29 12L52.61 12L58.64 29.02L64.63 12L70.98 12L70.98 35.46L66.13 35.46L66.13 29.05L66.61 17.98L60.28 35.46L56.96 35.46L50.64 17.99L51.13 29.05L51.13 35.46L46.29 35.46L46.29 12ZM84.32 35.46L75.2 35.46L75.2 12L83.42 12Q87.69 12 89.9 13.64Q92.1 15.27 92.1 18.43Q92.1 20.15 91.22 21.47Q90.33 22.78 88.75 23.39Q90.56 23.84 91.59 25.21Q92.64 26.58 92.64 28.56Q92.64 31.95 90.48 33.69Q88.32 35.43 84.32 35.46ZM84.47 25.25L80.03 25.25L80.03 31.58L84.18 31.58Q85.88 31.58 86.83 30.77Q87.8 29.95 87.8 28.52Q87.8 25.29 84.47 25.25ZM80.03 15.92L80.03 21.83L83.61 21.83Q87.27 21.76 87.27 18.91Q87.27 17.32 86.33 16.62Q85.42 15.92 83.42 15.92L80.03 15.92ZM108.43 29.31Q108.43 27.94 107.46 27.21Q106.49 26.47 103.98 25.66Q101.47 24.84 100 24.05Q96 21.89 96 18.24Q96 16.33 97.07 14.85Q98.15 13.35 100.14 12.52Q102.16 11.68 104.66 11.68Q107.17 11.68 109.14 12.6Q111.1 13.5 112.18 15.16Q113.28 16.82 113.28 18.93L108.44 18.93Q108.44 17.32 107.43 16.43Q106.41 15.53 104.58 15.53Q102.8 15.53 101.82 16.29Q100.84 17.03 100.84 18.25Q100.84 19.4 101.98 20.17Q103.14 20.94 105.38 21.62Q109.51 22.86 111.39 24.7Q113.28 26.53 113.28 29.27Q113.28 32.32 110.97 34.06Q108.67 35.78 104.77 35.78Q102.06 35.78 99.84 34.8Q97.61 33.8 96.44 32.08Q95.28 30.35 95.28 28.08L100.13 28.08Q100.13 31.96 104.77 31.96Q106.49 31.96 107.46 31.27Q108.43 30.56 108.43 29.31ZM135.64 12L135.64 35.46L130.81 35.46L130.81 25.41L121.38 25.41L121.38 35.46L116.55 35.46L116.55 12L121.38 12L121.38 21.51L130.81 21.51L130.81 12L135.64 12ZM159.13 23.21L159.13 24.26Q159.13 27.73 157.91 30.34Q156.69 32.95 154.4 34.37Q152.13 35.78 149.18 35.78Q146.26 35.78 143.97 34.38Q141.68 32.98 140.43 30.39Q139.17 27.77 139.15 24.39L139.15 23.23Q139.15 19.77 140.4 17.14Q141.65 14.5 143.92 13.1Q146.21 11.68 149.14 11.68Q152.08 11.68 154.35 13.1Q156.64 14.5 157.88 17.14Q159.13 19.77 159.13 23.21ZM154.24 24.34L154.24 23.2Q154.24 19.51 152.92 17.59Q151.59 15.67 149.14 15.67Q146.71 15.67 145.39 17.58Q144.07 19.46 144.05 23.12L144.05 24.26Q144.05 27.86 145.37 29.84Q146.7 31.82 149.18 31.82Q151.61 31.82 152.92 29.92Q154.22 28 154.24 24.34ZM176.76 21.51L176.76 25.29L167.48 25.29L167.48 31.58L178.37 31.58L178.37 35.46L162.65 35.46L162.65 12L178.34 12L178.34 15.92L167.48 15.92L167.48 21.51L176.76 21.51ZM193.38 29.31Q193.38 27.94 192.41 27.21Q191.44 26.47 188.93 25.66Q186.41 24.84 184.95 24.05Q180.95 21.89 180.95 18.24Q180.95 16.33 182.02 14.85Q183.1 13.35 185.09 12.52Q187.11 11.68 189.6 11.68Q192.12 11.68 194.08 12.6Q196.05 13.5 197.13 15.16Q198.23 16.82 198.23 18.93L193.39 18.93Q193.39 17.32 192.38 16.43Q191.36 15.53 189.52 15.53Q187.75 15.53 186.77 16.29Q185.79 17.03 185.79 18.25Q185.79 19.4 186.93 20.17Q188.09 20.94 190.33 21.62Q194.46 22.86 196.34 24.7Q198.23 26.53 198.23 29.27Q198.23 32.32 195.92 34.06Q193.62 35.78 189.72 35.78Q187.01 35.78 184.79 34.8Q182.56 33.8 181.39 32.08Q180.23 30.35 180.23 28.08L185.08 28.08Q185.08 31.96 189.72 31.96Q191.44 31.96 192.41 31.27Q193.38 30.56 193.38 29.31Z" />
			</g>
		</g>
	</g>
</svg>